<svg id="visual" viewBox="0 0 960 540" width="960" height="540" xmlns="http://www.w3.org/2000/svg" xmlns:xlink="http://www.w3.org/1999/xlink" version="1.1"><path d="M0 93L87 93L87 120L175 120L175 158L262 158L262 93L349 93L349 163L436 163L436 179L524 179L524 109L611 109L611 158L698 158L698 185L785 185L785 217L873 217L873 217L960 217L960 168L960 0L960 0L873 0L873 0L785 0L785 0L698 0L698 0L611 0L611 0L524 0L524 0L436 0L436 0L349 0L349 0L262 0L262 0L175 0L175 0L87 0L87 0L0 0Z" fill="#eaeaea"></path><path d="M0 320L87 320L87 357L175 357L175 293L262 293L262 347L349 347L349 325L436 325L436 266L524 266L524 276L611 276L611 303L698 303L698 309L785 309L785 293L873 293L873 303L960 303L960 314L960 166L960 215L873 215L873 215L785 215L785 183L698 183L698 156L611 156L611 107L524 107L524 177L436 177L436 161L349 161L349 91L262 91L262 156L175 156L175 118L87 118L87 91L0 91Z" fill="#ededed"></path><path d="M0 384L87 384L87 444L175 444L175 384L262 384L262 406L349 406L349 411L436 411L436 384L524 384L524 390L611 390L611 374L698 374L698 449L785 449L785 433L873 433L873 433L960 433L960 395L960 312L960 301L873 301L873 291L785 291L785 307L698 307L698 301L611 301L611 274L524 274L524 264L436 264L436 323L349 323L349 345L262 345L262 291L175 291L175 355L87 355L87 318L0 318Z" fill="#f1f1f1"></path><path d="M0 482L87 482L87 492L175 492L175 503L262 503L262 471L349 471L349 465L436 465L436 498L524 498L524 471L611 471L611 487L698 487L698 498L785 498L785 487L873 487L873 492L960 492L960 509L960 393L960 431L873 431L873 431L785 431L785 447L698 447L698 372L611 372L611 388L524 388L524 382L436 382L436 409L349 409L349 404L262 404L262 382L175 382L175 442L87 442L87 382L0 382Z" fill="#f5f5f5"></path><path d="M0 541L87 541L87 541L175 541L175 541L262 541L262 541L349 541L349 541L436 541L436 541L524 541L524 541L611 541L611 541L698 541L698 541L785 541L785 541L873 541L873 541L960 541L960 541L960 507L960 490L873 490L873 485L785 485L785 496L698 496L698 485L611 485L611 469L524 469L524 496L436 496L436 463L349 463L349 469L262 469L262 501L175 501L175 490L87 490L87 480L0 480Z" fill="#f9f9f9"></path></svg>